<svg xmlns="http://www.w3.org/2000/svg" height="1024" preserveAspectRatio="none" style="display: block;" version="1.1" viewBox="0 0 2048 2048" width="1024">
<path d="M 0 0 L 2048 0 L 2048 2048 L 0 2048 L 0 0 z" fill="rgb(255,255,255)" transform="translate(0,0)"></path>
<path d="M 943.111 170.561 C 988.003 167.446 1050.74 171.505 1094.71 176.852 C 1263 196.005 1424.28 255.082 1565.12 349.163 C 1774.56 486.324 1920.67 701.325 1971.09 946.549 C 1980.23 992.394 1985.33 1038.95 1986.32 1085.69 C 1991.38 1248.97 1952.53 1398.66 1862.04 1535.71 C 1755.51 1697.08 1607.81 1804.1 1417.11 1842.3 C 1256.74 1874.42 1099.77 1845.9 953.403 1774.16 C 909.053 1752.43 871.475 1728.02 830.608 1700.81 C 805.025 1714.76 772.413 1730.08 745.989 1743.04 C 726.186 1695.97 702.097 1647.44 681.522 1599.65 C 673.115 1602.41 658.469 1609.5 650.173 1613.42 C 625.124 1625.24 600.393 1638.88 575.276 1650.51 C 557.336 1607.95 537.923 1560.33 518.545 1518.83 C 485.003 1534.46 451.917 1551.1 418.508 1567.03 C 400.002 1527.52 382.04 1487.76 364.627 1447.75 C 325.545 1358.33 285.984 1269.13 245.946 1180.13 L 157.629 981.151 C 132.437 925.434 107.711 869.507 83.4554 813.375 C 74.829 793.443 57.7699 758.353 52.0245 739.458 C 46.9335 722.886 46.7973 705.187 51.6326 688.539 C 58.5714 665.168 74.5039 645.507 95.9298 633.876 C 111.681 625.382 130.944 616.877 147.382 608.911 L 225.468 570.529 L 498.5 438.571 C 552.32 411.966 606.326 385.74 660.514 359.895 C 684.772 348.276 710.833 334.852 735.831 325.164 C 750.042 319.656 767.099 320.685 781.647 325.088 C 812.876 334.54 822.145 355.48 835.943 382.558 C 842.391 395.327 848.954 408.038 855.63 420.69 C 885.179 407.164 912.478 403.686 940.494 422.62 C 961.005 436.483 967.893 455.621 977.917 477.018 L 996.906 516.98 C 1012.9 507.919 1031.95 499.681 1048.53 491.959 C 1072.8 481.072 1099.29 484.027 1121.55 497.721 C 1146.96 513.352 1156.81 545.518 1168.56 572.086 L 1210.69 667.449 C 1270.12 797.765 1326.86 929.286 1380.89 1061.93 C 1390.49 968.116 1385.21 854.753 1371.96 761.611 C 1342.45 554.277 1222.9 361.235 1039.92 255.311 C 1014.71 240.618 988.716 227.319 962.052 215.473 C 952.929 211.405 943.706 207.563 934.393 203.951 C 923.238 199.726 888.967 191.159 887.779 179.897 C 894.898 169.318 930.094 170.879 943.111 170.561 z" fill="rgb(77,75,76)" transform="translate(0,0)"></path>
<path d="M 1171.22 645.857 C 1175.84 648.072 1294.29 920.22 1307.96 953.468 C 1304.12 950.527 1300.24 947.489 1295.39 946.502 C 1291.84 945.78 1288.21 946.644 1285.27 948.739 C 1262.88 964.7 1254.95 1079.31 1250.65 1107.55 C 1233.44 1111.01 1214.45 1116.46 1198.25 1120.33 C 1133.77 1135.73 1066 1134.03 1006.29 1102.79 C 995.397 1097.09 979.032 1098.96 976.181 1113.91 C 973.401 1128.49 979.74 1142.92 985.691 1156.21 C 1015.75 1217.97 1067.84 1262.68 1116.28 1309.51 C 1127.23 1320.12 1146.79 1338.6 1154.35 1350.65 C 1162.79 1364.09 1158.19 1397.11 1152.98 1411.89 C 1138.45 1454.02 1112.78 1488.48 1086.92 1523.89 C 1064.46 1554.65 1063.5 1555.38 1030.09 1572.19 L 969.987 1601.83 C 909.228 1631.92 848.684 1662.45 788.36 1693.4 C 778.063 1698.69 767.668 1703.79 757.18 1708.69 C 753.339 1701.61 748.142 1688.87 744.775 1681.18 C 736.989 1663.22 729.078 1645.32 721.041 1627.47 C 685.354 1550.28 650.615 1472.66 616.832 1394.61 L 510.956 1151.61 L 471.389 1060.54 C 463.945 1043.51 452.869 1020.04 446.978 1003.19 C 476.841 989.6 509.751 972.265 539.705 957.632 L 759.561 849.537 C 895.636 782.452 1036.76 715.357 1171.22 645.857 z" fill="rgb(255,255,255)" transform="translate(0,0)"></path>
<path d="M 1615.24 647.704 C 1617.69 648.953 1622.9 652.918 1624.94 654.885 C 1742.76 768.618 1822.98 920.897 1844.12 1082.33 C 1847.89 1111.46 1849.85 1140.79 1849.99 1170.16 C 1850.02 1180.24 1846.07 1213.09 1852.51 1218.62 C 1860.78 1219.88 1864.99 1206.58 1867.47 1200.16 C 1895.36 1128.03 1916.84 1052.56 1922.73 975.209 C 1924.66 949.855 1923.16 925.316 1924.47 900.416 C 1925.99 907.343 1927.41 914.292 1928.73 921.261 C 1935.52 957.335 1939.01 1001.58 1940.67 1038.01 C 1948.32 1205.25 1904.06 1364.53 1807.37 1502.04 C 1718.52 1628.41 1585.37 1712.14 1437.96 1755.36 C 1408.19 1764.08 1378.48 1769.55 1348.2 1775.22 C 1367.91 1750.78 1381.52 1733.63 1398.69 1707.4 C 1403.43 1699.63 1408.1 1691.16 1412.64 1683.22 C 1413.22 1696.19 1412.98 1709.08 1412.87 1722.06 C 1415.73 1718.5 1418.44 1714.83 1421.01 1711.05 C 1464.05 1648.41 1489.17 1508.44 1475.55 1433.92 C 1493.47 1434.12 1532.67 1435.9 1546.98 1426.63 C 1547.18 1426.02 1547.39 1425.41 1547.59 1424.81 C 1542.53 1419.87 1528.47 1413.08 1523.9 1408.11 C 1507.58 1390.41 1499.66 1372.63 1492.87 1350.54 C 1500.52 1337.62 1508.05 1314.17 1512.88 1299.68 C 1539.63 1220.69 1545.47 1137.41 1527.72 1055.79 C 1525.89 1047.39 1517.92 1002.91 1509.85 1002.54 C 1492.55 1001.76 1461.65 1031.15 1447.25 1041.78 C 1450.44 1023.08 1456.42 1004.39 1459.74 983.149 C 1471.57 907.45 1470.64 827.266 1452.51 752.714 C 1464.09 768.13 1475.73 789.279 1485.37 806.046 C 1552.98 923.671 1591.63 1063.94 1582.74 1200.01 C 1582.27 1207.13 1580.22 1216.71 1590.11 1217.03 C 1592.83 1215.67 1595.74 1213.52 1597.11 1210.68 C 1668.57 1062.15 1700.28 886.64 1648.99 726.784 C 1639.3 696.58 1627.79 675.359 1615.24 647.704 z" fill="rgb(252,161,101)" transform="translate(0,0)"></path>
<path d="M 990.859 196.999 C 1006.49 196.611 1045.6 199.971 1061.51 201.524 C 1155.54 210.03 1248.02 231.016 1336.51 263.929 C 1559.52 344.925 1764.69 521.565 1867.6 737.601 C 1873.64 753.056 1884.18 770.464 1888.65 786.389 C 1922.04 905.301 1907.3 1041.26 1866.18 1154.21 C 1865.08 993.968 1801.79 838.192 1701.78 715.036 C 1684.43 693.675 1600.79 602.243 1577.62 598.805 C 1574.18 599.944 1575.34 598.898 1573.66 601.573 C 1575.28 610.965 1590.62 633.831 1596.41 644.286 C 1602.39 654.92 1607.92 665.802 1612.97 676.903 C 1668.04 800.393 1669.06 933.262 1633.83 1062.35 C 1625.23 1093.85 1613.71 1125.89 1602.25 1156.49 C 1599.1 1056.47 1576.61 958.006 1536 866.546 C 1513.07 812.682 1482.94 762.178 1446.43 716.416 C 1441.66 710.555 1433.03 696.034 1425.24 701.592 C 1423.24 706.133 1436.97 758.453 1439.06 768.289 C 1455.72 846.631 1455.64 928.428 1437.15 1006.44 C 1436.46 1009.35 1429.48 1036.33 1428.99 1037.07 C 1428.97 1037.03 1428.84 937.313 1428.29 925.37 C 1423.96 832.023 1413.95 740.073 1384.62 650.909 C 1330.88 487.517 1229.88 346.023 1086 250.572 C 1055.6 230.402 1023.39 213.393 990.859 196.999 z" fill="rgb(255,255,255)" transform="translate(0,0)"></path>
<path d="M 1003.64 1152.16 C 1017.89 1156.79 1041.48 1173.39 1055.58 1181.55 C 1077.9 1194.39 1101.55 1204.78 1126.11 1212.54 C 1150.32 1220.32 1174.99 1226.55 1199.99 1231.2 C 1276.63 1246.09 1353.95 1253.45 1413.23 1313.09 C 1438.42 1338.44 1462 1377.04 1485.67 1404.89 C 1459.34 1393.24 1437.45 1374.08 1411.39 1361.92 C 1404.91 1358.9 1398.2 1356.22 1391.56 1353.56 C 1406.38 1371.47 1429.61 1403.2 1438.53 1424.3 C 1451.18 1454.24 1453.45 1494.92 1447.96 1526.86 C 1447.87 1525.92 1447.76 1524.98 1447.64 1524.05 C 1443.41 1491.36 1423.75 1465.01 1398.3 1445.43 C 1432.12 1522.94 1443.8 1588.7 1394.49 1663.62 C 1399.08 1637.01 1398.76 1600.25 1389.95 1574.52 C 1385.99 1586.42 1382.21 1600.11 1378.47 1612.25 C 1357.59 1677.47 1314.54 1740.94 1258.87 1781.14 C 1185.49 1782.71 1115.93 1773.11 1044.52 1757.21 C 1126.56 1717.85 1202.89 1647.06 1221.32 1555.03 C 1224.12 1541.03 1224.91 1526.72 1225.8 1512.51 C 1206.24 1528.3 1192.21 1537.66 1171.07 1550.99 C 1175.78 1541.24 1180.37 1532.75 1183.89 1522.44 C 1196.25 1485.82 1195.4 1440.63 1183.74 1403.8 C 1177.83 1385.13 1178.44 1363.21 1171.36 1346.67 C 1165.14 1332.15 1147.77 1316.1 1136.56 1304.54 C 1096.11 1262.79 1018.89 1209.27 1003.64 1152.16 z" fill="rgb(255,255,255)" transform="translate(0,0)"></path>
<path d="M 1078.1 509.326 C 1119.84 511.145 1127.1 540.401 1140.95 572.53 C 1148.03 588.972 1156.08 604.821 1162.36 621.754 C 1135.17 635.746 1107.73 648.467 1080.3 661.951 L 939.398 732.185 C 784.115 810.185 628.396 887.312 472.248 963.564 L 436.599 980.709 C 427.898 964.198 422.405 946.056 414.225 929.581 C 396.9 894.69 404.289 841.869 440.058 821.234 C 467.213 805.567 500.014 791.094 528.988 776.569 L 710.64 685.8 L 959.388 563.133 C 983.292 551.537 1055.94 512.069 1078.1 509.326 z" fill="rgb(255,255,255)" transform="translate(0,0)"></path>
<path d="M 917.004 612.063 C 921.203 612.593 921.6 613.213 923.817 615.94 C 925.032 621.925 919.174 627.066 914.269 629.424 C 897.219 637.618 880.283 645.943 863.375 654.426 L 711.257 729.689 C 669.457 750.922 627.423 771.693 585.164 791.998 C 574.078 797.383 544.996 812.981 534.447 816.114 C 530.332 814.425 530.013 814.44 527.424 811.017 C 526.888 808.578 526.37 807.822 528.019 805.14 C 529.601 802.565 534.796 799.31 537.472 797.954 C 568.734 782.108 600.474 767.074 631.93 751.662 L 769.274 683.333 L 860.385 638.31 C 872.076 632.498 906.72 614.485 917.004 612.063 z" fill="rgb(77,75,76)" transform="translate(0,0)"></path>
<path d="M 480.347 839.6 C 502.931 835.693 524.409 850.824 528.333 873.404 C 532.257 895.985 517.142 917.474 494.564 921.415 C 471.963 925.359 450.446 910.225 446.518 887.621 C 442.59 865.017 457.74 843.511 480.347 839.6 z" fill="rgb(77,75,76)" transform="translate(0,0)"></path>
<path d="M 486.344 854.206 C 500.974 853.551 513.355 864.901 513.973 879.532 C 514.559 893.412 504.316 905.382 490.512 906.949 C 480.902 908.04 471.462 903.802 465.891 895.896 C 460.32 887.989 459.504 877.674 463.764 868.991 C 468.024 860.307 476.681 854.639 486.344 854.206 z" fill="rgb(255,255,255)" transform="translate(0,0)"></path>
<path d="M 1072.8 533.936 C 1079.04 534.132 1083.11 538.445 1081.41 544.744 C 1075.1 552.463 979.268 597.242 963.563 604.908 C 969.529 622.29 978.117 638.211 983.905 655.558 C 985.59 660.606 984.605 663.307 981.385 667.347 C 974.831 666.207 973.779 664.96 970.647 659.03 C 966.797 651.303 963.16 643.256 960.04 635.189 C 954.203 620.097 947.78 610.141 952.654 593.879 C 968.557 583.822 990.688 573.778 1007.87 565.376 C 1029.16 554.963 1051.29 543.731 1072.8 533.936 z" fill="rgb(77,75,76)" transform="translate(0,0)"></path>
<path d="M 891.074 434.121 C 900.676 433.431 907.774 433.853 916.973 437.799 C 924.617 441.108 931.364 446.189 936.655 452.621 C 946.399 464.363 967.507 512.319 973.798 528.016 C 931.812 547.788 890.336 569.531 847.857 589.52 C 836.412 564.446 825.197 539.269 814.214 513.99 C 840.062 499.536 870.395 487.681 896.868 474.134 C 901.651 471.687 904.488 465.797 903.161 460.597 C 901.228 458.743 900.588 458.085 897.739 457.912 C 888.773 457.367 747.802 527.09 739.304 534.433 C 739.254 544.4 770.282 611 776.157 625.454 C 670.631 677.223 565.436 729.661 460.576 782.767 C 428.704 798.928 410.792 805.209 391.875 837.177 C 376.489 844.323 360.687 852.894 345.244 860.296 C 320.351 872.228 295.932 883.764 271.831 897.24 L 249.933 848.109 C 244.612 836.15 238.779 824.275 235.229 811.614 C 228.022 785.913 235.901 755.815 260.386 742.302 C 283.739 729.414 308.254 718.128 332.164 706.2 C 371.876 686 411.7 666.023 451.635 646.268 C 549.198 598.106 645.162 549.204 743.553 502.382 C 772.31 488.643 800.995 474.758 829.61 460.726 C 846.018 452.78 874.144 438.454 891.074 434.121 z" fill="rgb(255,255,255)" transform="translate(0,0)"></path>
<path d="M 710.059 545.918 C 712.234 546.412 713.867 547.196 714.954 549.174 C 716.293 551.614 716.37 553.976 715.164 556.583 C 713.646 559.865 710.462 562.923 707.318 564.692 C 689.636 573.318 671.766 581.635 654.196 590.477 L 495.688 668.909 C 462.938 685.311 430.063 701.46 397.066 717.357 C 384.236 723.594 365.294 733.93 352.872 738.709 C 342.09 732.221 345.251 725.418 355.196 720.611 C 380.183 708.533 405.283 696.443 430.198 684.214 C 475.2 662.004 520.082 639.553 564.843 616.861 L 658.446 570.521 C 670.508 564.568 698.47 549.928 710.059 545.918 z" fill="rgb(77,75,76)" transform="translate(0,0)"></path>
<path d="M 305.5 756.598 C 328.352 753.646 349.287 769.732 352.321 792.573 C 355.355 815.414 339.346 836.407 316.516 839.524 C 293.569 842.656 272.445 826.547 269.395 803.589 C 266.345 780.631 282.531 759.564 305.5 756.598 z" fill="rgb(77,75,76)" transform="translate(0,0)"></path>
<path d="M 308.883 771.757 C 318.437 770.993 327.664 775.425 333.039 783.361 C 338.413 791.297 339.104 801.51 334.849 810.098 C 330.593 818.686 322.048 824.321 312.478 824.852 C 297.931 825.658 285.441 814.616 284.457 800.08 C 283.473 785.544 294.361 772.92 308.883 771.757 z" fill="rgb(255,255,255)" transform="translate(0,0)"></path>
<path d="M 751.03 346.064 C 760.033 345.623 767.283 346.077 775.969 349.312 C 783.269 351.968 789.802 356.38 794.993 362.16 C 805.135 373.414 825.493 416.625 832.498 432.315 C 789.234 452.651 746.59 474.227 703.072 494.086 C 692.201 472.629 682.166 448.549 672.549 426.38 C 683.439 421.288 757.537 387.185 761.019 383.25 C 763.593 380.342 764.415 377.751 764.07 373.879 C 760.496 368.656 755.266 370.075 750.074 372.353 C 716.888 387.184 683.994 403.256 651.368 419.302 C 635.431 427.14 608.19 437.593 595.594 448.85 C 602.45 470.534 620.41 507.536 629.839 528.947 C 517.083 586.985 403.714 643.823 289.751 699.451 L 281.284 703.497 C 244.76 721.017 223.606 729.222 209.259 770.029 C 176.583 785.106 144.064 800.519 111.706 816.265 C 99.1309 791.584 87.0905 761.043 76.5687 735.204 C 65.6726 708.446 79.4865 670.443 105.533 656.925 C 141.749 638.13 179.638 620.675 216.729 602.831 L 440.805 494.661 L 639.749 397.544 L 700.877 368.205 C 716.549 360.655 734.761 351.064 751.03 346.064 z" fill="rgb(255,255,255)" transform="translate(0,0)"></path>
<path d="M 566.745 462.079 C 571.266 463.676 574.407 468.884 571.761 472.564 C 566.338 480.103 550.728 485.366 542.643 489.553 C 517.073 502.794 490.822 514.406 464.989 526.909 C 402.177 557.813 339.182 588.344 276.008 618.5 C 259.644 626.246 204.784 654.928 191.506 658.027 C 187.272 654.686 185.401 653.062 186.086 647.434 C 189.998 641.202 210.129 633.393 217.826 629.622 L 303.842 587.981 C 360.593 560.386 416.341 532.003 473.676 505.263 L 532.233 477.347 C 541.454 472.948 557.416 464.822 566.745 462.079 z" fill="rgb(77,75,76)" transform="translate(0,0)"></path>
<path d="M 145.261 677.538 C 167.966 673.637 189.542 688.861 193.476 711.56 C 197.411 734.259 182.217 755.857 159.524 759.824 C 136.784 763.799 115.133 748.568 111.191 725.823 C 107.248 703.077 122.51 681.448 145.261 677.538 z" fill="rgb(77,75,76)" transform="translate(0,0)"></path>
<path d="M 148.226 692.466 C 162.651 690.3 176.123 700.175 178.4 714.584 C 180.677 728.993 170.906 742.54 156.515 744.928 C 141.967 747.342 128.238 737.44 125.937 722.874 C 123.635 708.307 133.642 694.655 148.226 692.466 z" fill="rgb(255,255,255)" transform="translate(0,0)"></path>
<path d="M 380.112 870.857 C 380.583 871.087 381.055 871.316 381.526 871.546 C 380.805 878.679 380.917 885.882 380.725 893.012 C 380.446 902.948 382.146 913.152 385.64 922.515 C 394.828 947.139 405.691 971.612 416.181 995.701 C 433.422 1035.94 450.968 1076.04 468.818 1116.01 L 566.989 1343.35 C 591.205 1397.3 615.05 1451.42 638.521 1505.7 C 648.639 1528.83 659.759 1552.22 669.224 1575.52 C 643.77 1589.22 613.678 1602.92 587.367 1615.86 L 583.994 1607.78 C 524.41 1468.32 463.867 1329.26 402.37 1190.62 L 339.818 1048.56 C 320.705 1005.77 300.122 961.435 282.797 917.946 C 315.413 901.833 347.309 887.621 380.112 870.857 z" fill="rgb(255,255,255)" transform="translate(0,0)"></path>
<path d="M 206.771 798.962 C 209.29 801.044 209.843 814.246 211.7 819.288 C 220.311 842.67 231.517 866.951 241.773 889.729 C 296.805 1011.3 350.869 1133.31 403.96 1255.74 C 439.483 1335.12 474.191 1414.86 508.078 1494.95 C 497.303 1499.44 435.216 1531.64 430.65 1532.04 L 429.103 1529.23 C 414.877 1500.74 402.202 1470 389.039 1440.78 L 308.338 1259.74 L 121.131 837.999 C 149.844 825.233 177.851 811.492 206.771 798.962 z" fill="rgb(255,255,255)" transform="translate(0,0)"></path>
<path d="M 1286.53 1115.39 C 1354.84 1104.79 1399.53 1159.29 1426.3 1214.6 C 1431.07 1224.52 1435.39 1234.66 1439.25 1244.98 C 1449.58 1273.42 1456.94 1303.27 1468.07 1331.53 C 1469.68 1335.62 1474.22 1346.64 1472.84 1350.61 C 1467 1353.3 1458.56 1344.26 1454.82 1340.14 C 1412.09 1293.05 1381.29 1265.95 1318.66 1245.91 C 1291.19 1237.75 1267.96 1233.91 1239.84 1228.84 C 1161.46 1214.72 1094.96 1198.34 1028.88 1151.34 L 1049.56 1138.01 C 1110.93 1151.88 1155.47 1148.04 1216.02 1132.18 C 1240.39 1125.79 1261.27 1118.01 1286.53 1115.39 z" fill="rgb(252,161,101)" transform="translate(0,0)"></path>
<path d="M 1246.52 1152.34 C 1265.1 1150.63 1288.4 1158.74 1291.23 1179.63 C 1292.07 1185.52 1290.43 1191.49 1286.7 1196.12 C 1279.75 1204.78 1270.46 1205.77 1260.41 1207.07 C 1204.48 1207.27 1194.4 1158.99 1246.52 1152.34 z" fill="rgb(77,75,76)" transform="translate(0,0)"></path>
<path d="M 1257.86 1165.17 C 1294.55 1171.66 1278.55 1203.57 1237.95 1193.23 C 1231.97 1191.06 1222.99 1185.54 1225.78 1178.27 L 1227.34 1178.33 C 1228.38 1179.9 1231.72 1185.43 1232.75 1186.21 C 1239.25 1191.14 1247.87 1191.26 1253 1184.66 C 1259.03 1176.89 1258.45 1173.83 1257.86 1165.17 z" fill="rgb(255,255,255)" transform="translate(0,0)"></path>
<path d="M 1172.28 1409.68 C 1174.18 1416.55 1175.98 1429.88 1176.74 1437.02 C 1183.33 1498.12 1163.49 1542.96 1125.8 1589.49 C 1153.65 1581.45 1186.5 1563.59 1209.01 1545.29 C 1181.75 1642.06 1127.03 1692.39 1042.47 1740.96 L 1023.86 1750.9 C 983.8 1740.52 958.929 1732.18 920.828 1716.36 C 1012.44 1652.59 1094.49 1556.44 1151.31 1460.62 C 1159.82 1446.27 1166.7 1425.63 1172.28 1409.68 z" fill="rgb(252,161,101)" transform="translate(0,0)"></path>
<path d="M 1488.74 1041.85 C 1491.73 1044.77 1493.3 1073.18 1493.74 1078.49 C 1499.27 1146.32 1490.26 1206.94 1459.38 1268.09 C 1455.56 1258.02 1451.62 1244.69 1448.25 1234.24 C 1472.28 1190.86 1479.08 1124.29 1474.18 1075.1 C 1467.8 1106.65 1464.92 1137.17 1457.66 1169.51 C 1453.62 1186.22 1448.6 1199.13 1441.76 1214.59 C 1429.03 1189.95 1421.42 1176.47 1403.88 1154.61 C 1417.3 1138.86 1431.82 1124.16 1446.19 1109.32 C 1451.52 1103.81 1461.21 1094.93 1465.49 1089.64 C 1444.87 1100.2 1414.12 1128.32 1397.42 1145.03 C 1394.56 1142.19 1394.07 1141.9 1392.29 1138.4 C 1393.52 1125.94 1475.26 1054.17 1488.74 1041.85 z" fill="rgb(255,255,255)" transform="translate(0,0)"></path>
<path d="M 1286.09 983.32 C 1295.68 989.044 1329.42 1089.59 1333.98 1104.68 C 1327.07 1102.86 1322.33 1102.06 1315.25 1100.96 C 1296.21 1099.57 1285.47 1100.74 1266.84 1104.58 C 1266.61 1074.41 1277.09 1012.07 1286.09 983.32 z" fill="rgb(255,255,255)" transform="translate(0,0)"></path>
<path d="M 800.409 520.836 C 806.058 524.2 829.53 584.489 834.861 595.666 C 821.496 603.339 804.512 611.157 790.518 617.907 L 789.978 617.828 C 787.538 616.177 758.735 550.478 755.587 542.78 C 769.996 535.176 785.66 527.931 800.409 520.836 z" fill="rgb(255,255,255)" transform="translate(0,0)"></path>
<path d="M 658.263 433.79 L 659.546 434.176 C 664.747 440.577 685.014 490.252 689.55 500.522 C 674.624 507.917 659.654 515.226 644.643 522.448 L 644.215 522.459 C 640.834 520.04 617.357 464.998 613.898 455.566 C 625.496 448.933 645.888 439.804 658.263 433.79 z" fill="rgb(255,255,255)" transform="translate(0,0)"></path>
<path d="M 1011.04 1609.91 L 1012.19 1610.08 C 1011.8 1612.49 1002.12 1621.09 999.655 1623.46 C 982.445 1639.99 965.272 1656.21 946.519 1670.98 C 931.679 1682.66 915.65 1692.82 901.1 1704.68 L 876.336 1694.02 L 859.379 1686.79 C 907.12 1661.34 962.552 1633.66 1011.04 1609.91 z" fill="rgb(255,255,255)" transform="translate(0,0)"></path>
<metadata><recraft-signature>{"signed_by": "recraft", "signature_b64": "nE1G9kmIZM14jo/ixVmjRLfO3s6RiJF3RQog/vJHw5HZ91WWFo4guCfB0IbAu7qv2Zat0dhuKk9DYQWAF8qzAw==", "signing_algo": "Ed25519", "generation_timestamp": 1770517800, "identifier": "6bdf8477-9ae8-4ffe-a618-ada5f896e462"}</recraft-signature></metadata></svg>